<mxfile host="app.diagrams.net" modified="2024-05-29T04:07:06.655Z" agent="Mozilla/5.0 (Macintosh; Intel Mac OS X 10_15_7) AppleWebKit/605.1.15 (KHTML, like Gecko) Version/17.3.1 Safari/605.1.15" version="24.4.9" etag="VdUHdsvEIuHjQtuaI45B" type="github">
  <diagram name="Page-1" id="dLhLOWqBtDHFbuYO5P-9">
    <mxGraphModel>
      <root>
        <mxCell id="0" />
        <mxCell id="1" parent="0" />
      </root>
    </mxGraphModel>
  </diagram>
</mxfile>
